<?xml version="1.0" encoding="utf-8"?>
<!-- Generator: Adobe Illustrator 27.0.0, SVG Export Plug-In . SVG Version: 6.00 Build 0)  -->
<svg version="1.0" id="레이어_1" xmlns="http://www.w3.org/2000/svg" xmlns:xlink="http://www.w3.org/1999/xlink" x="0px"
	 y="0px" viewBox="0 0 100 100" style="enable-background:new 0 0 100 100;" xml:space="preserve">
<style type="text/css">
	.st0{fill:#61DAFB;}
</style>
<g>
	<circle class="st0" cx="50" cy="50" r="8.9"/>
	<g>
		<path class="st0" d="M50,70.4c-28,0-50-9-50-20.4c0-11.5,22-20.4,50-20.4c28,0,50,9,50,20.4C100,61.4,78,70.4,50,70.4z M50,33.9
			C23.1,33.9,4.3,42.4,4.3,50S23.1,66.1,50,66.1c26.9,0,45.7-8.5,45.7-16.1S76.9,33.9,50,33.9z"/>
		<path class="st0" d="M70,94.6c-4.4,0-9.8-2.4-15.6-7.2c-7.7-6.3-15.5-15.9-22.1-27.2C18.3,35.9,15.1,12.4,25,6.7
			c9.9-5.7,28.7,8.8,42.7,33.1l0,0C81.7,64,84.9,87.6,75,93.3C73.5,94.1,71.8,94.6,70,94.6z M30,9.8c-1.1,0-2,0.2-2.9,0.7
			c-6.6,3.8-4.6,24.3,8.9,47.6c6.3,10.8,13.7,20.1,21,26c6.7,5.4,12.4,7.4,15.7,5.5c6.6-3.8,4.6-24.3-8.9-47.6l0,0
			C52.1,21.5,37.8,9.8,30,9.8z"/>
		<path class="st0" d="M30,94.6c-1.9,0-3.5-0.4-5-1.3c-9.9-5.7-6.7-29.2,7.3-53.5C46.3,15.5,65.1,0.9,75,6.7
			c9.9,5.7,6.7,29.2-7.3,53.5l0,0c-6.5,11.3-14.3,20.9-22.1,27.2C39.8,92.1,34.5,94.6,30,94.6z M70,9.7c-7.8,0-22.1,11.7-33.9,32.2
			c-13.5,23.3-15.5,43.8-8.9,47.6c3.3,1.9,9.1-0.1,15.7-5.5c7.3-5.9,14.8-15.2,21-26c13.4-23.3,15.5-43.8,8.9-47.6
			C72,10,71.1,9.7,70,9.7z"/>
	</g>
</g>
</svg>
